<?xml version="1.0" encoding="UTF-8"?>
<svg xmlns="http://www.w3.org/2000/svg" xmlns:xlink="http://www.w3.org/1999/xlink" width="500px" height="291px" viewBox="0 0 499 291" version="1.1">
<defs>
<clipPath id="clip1">
  <path d="M 193.449219 0 L 305.015625 0 L 305.015625 150.351562 L 193.449219 150.351562 Z M 193.449219 0 "/>
</clipPath>
</defs>
<g id="surface1">
<g clip-path="url(#clip1)" clip-rule="nonzero">
<path style=" stroke:none;fill-rule:nonzero;fill:rgb(100%,100%,100%);fill-opacity:1;" d="M 305.011719 53.160156 L 305.011719 126.722656 C 305.011719 132.273438 283.023438 150.351562 283.023438 150.351562 L 215.796875 150.351562 C 215.796875 150.351562 193.449219 132.273438 193.449219 126.722656 L 193.449219 53.160156 C 193.449219 51.371094 194.878906 50.117188 196.488281 50.117188 L 215.976562 50.117188 L 215.976562 42.242188 C 215.976562 23.984375 230.992188 0 249.230469 0 C 267.644531 0 282.484375 23.984375 282.484375 42.242188 L 282.484375 50.117188 L 301.972656 50.117188 C 303.582031 50.117188 305.011719 51.371094 305.011719 53.160156 Z M 199.882812 56.558594 L 199.882812 126.722656 L 215.976562 126.722656 L 215.976562 56.558594 Z M 230.636719 50.117188 L 267.824219 50.117188 L 267.824219 29.710938 C 267.824219 18.4375 260.492188 9.308594 249.230469 9.308594 C 237.964844 9.308594 230.636719 18.4375 230.636719 29.710938 Z M 267.824219 126.722656 L 267.824219 56.558594 L 230.636719 56.558594 L 230.636719 126.722656 Z M 282.484375 56.558594 L 282.484375 126.722656 L 298.578125 126.722656 L 298.578125 56.558594 Z M 282.484375 56.558594 "/>
</g>
<path style="fill:none;stroke-width:1;stroke-linecap:round;stroke-linejoin:miter;stroke:rgb(18.823529%,18.823529%,18.823529%);stroke-opacity:1;stroke-miterlimit:4;" d="M 40.620593 36.999839 L 62.267332 36.999839 " transform="matrix(4.84466,0,0,4.85,0,0)"/>
<path style=" stroke:none;fill-rule:nonzero;fill:rgb(97.254902%,97.254902%,97.254902%);fill-opacity:1;" d="M 21.414062 247.445312 C 23.640625 249.679688 26.324219 250.792969 29.457031 250.792969 C 32.621094 250.792969 35.171875 249.824219 37.109375 247.882812 C 40.210938 244.714844 41.761719 239.976562 41.761719 233.671875 C 41.761719 222.128906 36.640625 216.359375 26.402344 216.359375 C 23.140625 216.359375 19.492188 217.214844 15.453125 218.929688 C 14.90625 225.039062 14.632812 234.578125 14.632812 247.542969 C 14.632812 260.507812 14.984375 271.066406 15.695312 279.214844 L 22.332031 279.652344 C 22.496094 280.910156 22.574219 282.042969 22.574219 283.046875 C 22.574219 284.046875 22.445312 285.050781 22.1875 286.054688 C 19.410156 285.988281 15.792969 285.957031 11.335938 285.957031 C 6.878906 285.957031 3.457031 285.988281 1.066406 286.054688 C 0.808594 284.890625 0.679688 283.871094 0.679688 282.996094 C 0.679688 282.09375 0.757812 280.945312 0.921875 279.554688 L 4.988281 279.214844 C 5.605469 270.90625 5.910156 260.285156 5.910156 247.351562 C 5.910156 234.449219 5.523438 224.847656 4.746094 218.539062 L 0.339844 218.203125 C 0.113281 217.132812 0 215.9375 0 214.613281 C 0 213.285156 0.03125 212.316406 0.0976562 211.703125 C 3.359375 211.539062 7.816406 211.183594 13.46875 210.636719 C 17.441406 210.019531 21.785156 209.714844 26.5 209.714844 C 35.640625 209.714844 42.148438 211.785156 46.023438 215.921875 C 49.898438 220.09375 51.835938 225.914062 51.835938 233.382812 C 51.835938 240.882812 49.882812 246.960938 45.976562 251.617188 C 42.066406 256.273438 36.125 258.601562 28.148438 258.601562 C 25.046875 258.601562 21.980469 258.019531 18.941406 256.855469 C 18.941406 254.753906 19.21875 252.8125 19.765625 251.035156 C 20.316406 249.257812 20.863281 248.0625 21.414062 247.445312 Z M 58.378906 279.554688 L 62.449219 279.214844 C 63.125 271.453125 63.464844 264.324219 63.464844 257.824219 C 63.464844 251.359375 63.160156 244.941406 62.542969 238.570312 L 58.234375 238.230469 C 58.007812 237.003906 57.894531 235.726562 57.894531 234.402344 C 57.894531 233.074219 57.941406 232.1875 58.039062 231.734375 C 61.980469 231.636719 66.777344 231.28125 72.425781 230.664062 L 73.007812 231.246094 C 72.945312 231.699219 72.71875 233.996094 72.332031 238.136719 C 74.105469 235.871094 76.175781 233.996094 78.53125 232.507812 C 80.890625 231.054688 83.214844 230.328125 85.507812 230.328125 C 87.800781 230.328125 89.804688 231.136719 91.515625 232.75 C 93.226562 234.402344 94.082031 236.535156 94.082031 239.152344 C 94.082031 243.519531 92.257812 245.699219 88.609375 245.699219 C 86.507812 245.699219 84.847656 245.023438 83.617188 243.664062 C 82.359375 242.304688 81.730469 240.496094 81.730469 238.230469 C 81.566406 238.167969 81.292969 238.136719 80.90625 238.136719 C 78.0625 238.136719 75.125 240.300781 72.089844 244.632812 C 72.023438 246.800781 71.992188 251.667969 71.992188 259.234375 C 71.992188 266.796875 72.332031 273.460938 73.007812 279.214844 L 77.320312 279.554688 C 77.480469 281.269531 77.5625 282.449219 77.5625 283.09375 C 77.5625 283.773438 77.449219 284.757812 77.222656 286.054688 C 75.027344 285.988281 71.847656 285.957031 67.679688 285.957031 C 63.480469 285.957031 60.414062 285.988281 58.476562 286.054688 C 58.25 284.890625 58.136719 283.789062 58.136719 282.753906 C 58.136719 281.71875 58.214844 280.652344 58.378906 279.554688 Z M 139.625 245.796875 L 139.1875 262.578125 C 139.1875 267.847656 139.492188 273.007812 140.109375 278.050781 L 144.417969 278.390625 C 144.582031 279.617188 144.660156 280.765625 144.660156 281.832031 C 144.660156 282.867188 144.53125 283.96875 144.273438 285.132812 C 142.046875 285.226562 137.667969 285.617188 131.144531 286.296875 C 130.597656 284.839844 130.175781 283.011719 129.886719 280.816406 C 123.84375 285.40625 118.628906 287.703125 114.238281 287.703125 C 109.84375 287.703125 106.4375 286.28125 104.015625 283.433594 C 101.558594 280.621094 100.332031 276.59375 100.332031 271.359375 C 100.332031 266.121094 101.980469 261.980469 105.273438 258.941406 C 108.570312 255.933594 112.71875 254.429688 117.726562 254.429688 C 122.730469 254.429688 127.011719 255.351562 130.5625 257.195312 C 130.660156 256.355469 130.707031 254.964844 130.707031 253.023438 C 130.707031 247.269531 129.902344 243.128906 128.285156 240.609375 C 126.703125 238.085938 124.28125 236.824219 121.019531 236.824219 C 117.789062 236.824219 115.433594 237.457031 113.945312 238.71875 C 114.558594 239.945312 114.867188 241.496094 114.867188 243.371094 C 114.867188 245.214844 114.269531 246.816406 113.074219 248.175781 C 111.878906 249.53125 110.199219 250.210938 108.035156 250.210938 C 104.386719 250.210938 102.5625 248.0625 102.5625 243.761719 C 102.5625 239.460938 104.191406 236.148438 107.453125 233.820312 C 110.683594 231.492188 115.253906 230.328125 121.164062 230.328125 C 127.042969 230.328125 131.597656 231.699219 134.828125 234.449219 C 138.023438 237.199219 139.625 240.980469 139.625 245.796875 Z M 130.128906 264.519531 C 126.929688 261.804688 123.507812 260.445312 119.855469 260.445312 C 112.878906 260.445312 109.390625 263.550781 109.390625 269.757812 C 109.390625 276.125 112.152344 279.3125 117.675781 279.3125 C 119.679688 279.3125 121.828125 278.792969 124.121094 277.757812 C 126.414062 276.691406 128.222656 275.382812 129.546875 273.832031 C 129.933594 269.175781 130.128906 266.070312 130.128906 264.519531 Z M 188.699219 250.210938 C 186.535156 250.210938 184.855469 249.53125 183.660156 248.175781 C 182.464844 246.816406 181.867188 245.152344 181.867188 243.179688 C 181.867188 241.207031 182.125 239.71875 182.644531 238.71875 C 180.964844 237.390625 178.960938 236.726562 176.636719 236.726562 C 168.398438 236.726562 164.28125 244.019531 164.28125 258.601562 C 164.28125 265.261719 165.332031 270.386719 167.429688 273.976562 C 169.53125 277.53125 172.503906 279.3125 176.34375 279.3125 C 180.15625 279.3125 184.90625 276.902344 190.589844 272.085938 C 192.816406 274.414062 194.238281 277.484375 194.851562 281.300781 C 188.359375 285.566406 181.738281 287.703125 174.988281 287.703125 C 168.238281 287.703125 163.183594 285.261719 159.824219 280.378906 C 156.433594 275.496094 154.738281 268.269531 154.738281 258.699219 C 154.738281 249.160156 156.613281 242.046875 160.359375 237.359375 C 164.074219 232.671875 169.335938 230.328125 176.152344 230.328125 C 181.511719 230.328125 185.855469 231.585938 189.183594 234.109375 C 192.511719 236.632812 194.175781 239.945312 194.175781 244.050781 C 194.175781 248.160156 192.347656 250.210938 188.699219 250.210938 Z M 208.222656 267.089844 C 208.222656 267.089844 208.304688 258.441406 208.464844 241.140625 C 208.464844 239.976562 208.433594 239.089844 208.367188 238.472656 C 205.105469 238.472656 202.78125 238.507812 201.390625 238.570312 C 200.90625 237.34375 200.664062 236.128906 200.664062 234.933594 C 200.664062 233.707031 200.746094 232.785156 200.90625 232.167969 L 208.03125 232.167969 L 207.449219 223.585938 C 209.386719 222.9375 211.421875 222.613281 213.550781 222.613281 C 215.683594 222.613281 217.445312 222.777344 218.832031 223.101562 L 217.765625 232.074219 C 222.03125 231.976562 226.34375 231.734375 230.703125 231.34375 C 231.15625 232.378906 231.382812 233.496094 231.382812 234.691406 C 231.382812 235.886719 231.21875 237.34375 230.898438 239.054688 C 228.054688 238.894531 223.53125 238.734375 217.332031 238.570312 C 217.171875 240.125 217.089844 242.417969 217.089844 245.457031 L 217.089844 269.078125 C 217.089844 271.082031 217.1875 272.730469 217.378906 274.023438 C 217.574219 275.316406 218.074219 276.480469 218.882812 277.515625 C 219.6875 278.550781 220.867188 279.070312 222.417969 279.070312 C 225.84375 279.070312 229.105469 277.871094 232.203125 275.480469 C 233.820312 277.808594 234.625 280.945312 234.625 284.890625 C 230.363281 286.765625 226.664062 287.703125 223.53125 287.703125 C 220.398438 287.703125 217.898438 287.296875 216.023438 286.488281 C 214.183594 285.679688 212.746094 284.710938 211.710938 283.578125 C 210.710938 282.449219 209.933594 280.878906 209.386719 278.875 C 208.609375 275.996094 208.222656 272.070312 208.222656 267.089844 Z M 241.75 279.554688 L 245.816406 279.214844 C 246.496094 271.617188 246.835938 264.648438 246.835938 258.3125 C 246.835938 251.972656 246.527344 245.394531 245.914062 238.570312 L 241.601562 238.230469 C 241.378906 236.90625 241.265625 235.644531 241.265625 234.449219 C 241.265625 233.253906 241.296875 232.347656 241.359375 231.734375 C 245.882812 231.570312 250.695312 231.214844 255.796875 230.664062 L 256.378906 231.246094 C 255.667969 235.839844 255.3125 243.519531 255.3125 254.285156 C 255.3125 265.085938 255.667969 273.394531 256.378906 279.214844 L 260.691406 279.554688 C 260.851562 280.78125 260.933594 281.851562 260.933594 282.753906 C 260.933594 283.660156 260.804688 284.757812 260.546875 286.054688 C 257.832031 285.988281 254.699219 285.957031 251.148438 285.957031 C 247.59375 285.957031 244.492188 285.988281 241.84375 286.054688 C 241.621094 284.890625 241.507812 283.691406 241.507812 282.464844 C 241.507812 281.234375 241.585938 280.265625 241.75 279.554688 Z M 257.542969 214.613281 C 257.542969 219.429688 255.054688 221.839844 250.082031 221.839844 C 246.207031 221.839844 244.269531 219.851562 244.269531 215.875 C 244.269531 210.992188 246.753906 208.550781 251.730469 208.550781 C 255.605469 208.550781 257.542969 210.570312 257.542969 214.613281 Z M 275.5625 263.257812 C 277.953125 263.257812 279.8125 264 281.136719 265.488281 C 282.460938 266.945312 283.121094 268.738281 283.121094 270.871094 C 283.121094 273.007812 282.765625 274.738281 282.054688 276.0625 C 285.480469 278.84375 289.421875 280.234375 293.878906 280.234375 C 298.335938 280.234375 301.691406 279.214844 303.953125 277.175781 C 306.183594 275.109375 307.296875 272.296875 307.296875 268.738281 C 307.296875 265.148438 306.054688 262.078125 303.566406 259.523438 C 301.113281 256.96875 298.109375 254.835938 294.554688 253.121094 C 291.035156 251.40625 287.53125 249.613281 284.042969 247.738281 C 280.554688 245.832031 277.566406 243.277344 275.078125 240.074219 C 272.625 236.90625 271.398438 233.15625 271.398438 228.824219 C 271.398438 222.839844 273.367188 218.152344 277.308594 214.757812 C 281.25 211.394531 286.320312 209.714844 292.519531 209.714844 C 298.722656 209.714844 304.097656 211.183594 308.652344 214.128906 C 313.175781 217.070312 315.4375 221.046875 315.4375 226.058594 C 315.4375 231.070312 313.417969 233.574219 309.378906 233.574219 C 306.988281 233.574219 305.132812 232.832031 303.808594 231.34375 C 302.484375 229.890625 301.824219 228 301.824219 225.671875 C 301.824219 223.34375 302.289062 221.546875 303.226562 220.285156 C 300.515625 217.828125 297.1875 216.601562 293.246094 216.601562 C 289.273438 216.601562 286.304688 217.601562 284.332031 219.609375 C 282.363281 221.613281 281.378906 224.132812 281.378906 227.175781 C 281.378906 230.214844 282.265625 232.800781 284.042969 234.933594 C 285.820312 237.066406 288.03125 238.8125 290.679688 240.171875 C 293.328125 241.53125 296.203125 243.082031 299.304688 244.828125 C 302.402344 246.574219 305.261719 248.289062 307.878906 249.96875 C 310.527344 251.683594 312.738281 253.996094 314.515625 256.90625 C 316.292969 259.816406 317.179688 263.128906 317.179688 266.847656 C 317.179688 272.992188 315.0625 278.003906 310.832031 281.882812 C 306.632812 285.761719 301.242188 287.703125 294.652344 287.703125 C 288.0625 287.703125 282.21875 286.167969 277.113281 283.09375 C 272.042969 280.023438 269.507812 275.738281 269.507812 270.242188 C 269.507812 265.585938 271.527344 263.257812 275.5625 263.257812 Z M 330.308594 267.089844 C 330.308594 267.089844 330.390625 258.441406 330.550781 241.140625 C 330.550781 239.976562 330.519531 239.089844 330.453125 238.472656 C 327.191406 238.472656 324.867188 238.507812 323.476562 238.570312 C 322.992188 237.34375 322.75 236.128906 322.75 234.933594 C 322.75 233.707031 322.832031 232.785156 322.992188 232.167969 L 330.113281 232.167969 L 329.535156 223.585938 C 331.472656 222.9375 333.507812 222.613281 335.636719 222.613281 C 337.769531 222.613281 339.53125 222.777344 340.917969 223.101562 L 339.851562 232.074219 C 344.117188 231.976562 348.429688 231.734375 352.789062 231.34375 C 353.242188 232.378906 353.464844 233.496094 353.464844 234.691406 C 353.464844 235.886719 353.304688 237.34375 352.980469 239.054688 C 350.140625 238.894531 345.617188 238.734375 339.417969 238.570312 C 339.253906 240.125 339.175781 242.417969 339.175781 245.457031 L 339.175781 269.078125 C 339.175781 271.082031 339.273438 272.730469 339.464844 274.023438 C 339.660156 275.316406 340.160156 276.480469 340.96875 277.515625 C 341.773438 278.550781 342.953125 279.070312 344.503906 279.070312 C 347.925781 279.070312 351.1875 277.871094 354.289062 275.480469 C 355.90625 277.808594 356.710938 280.945312 356.710938 284.890625 C 352.449219 286.765625 348.75 287.703125 345.617188 287.703125 C 342.484375 287.703125 339.980469 287.296875 338.109375 286.488281 C 336.269531 285.679688 334.832031 284.710938 333.796875 283.578125 C 332.796875 282.449219 332.019531 280.878906 331.472656 278.875 C 330.695312 275.996094 330.308594 272.070312 330.308594 267.089844 Z M 362.527344 258.359375 C 362.527344 239.671875 369.808594 230.328125 384.375 230.328125 C 398.972656 230.328125 406.273438 239.671875 406.273438 258.359375 C 406.273438 266.992188 404.917969 273.832031 402.203125 278.875 C 399.101562 284.757812 393.160156 287.703125 384.375 287.703125 C 375.621094 287.703125 369.695312 284.757812 366.59375 278.875 C 363.882812 273.832031 362.527344 266.992188 362.527344 258.359375 Z M 372.070312 258.070312 C 372.070312 272.230469 376.171875 279.3125 384.375 279.3125 C 392.609375 279.3125 396.730469 272.230469 396.730469 258.070312 C 396.730469 243.90625 392.609375 236.824219 384.375 236.824219 C 376.171875 236.824219 372.070312 243.90625 372.070312 258.070312 Z M 415.671875 279.554688 L 419.742188 279.214844 C 420.453125 271.453125 420.808594 264.324219 420.808594 257.824219 C 420.808594 251.359375 420.484375 244.941406 419.839844 238.570312 L 415.574219 238.230469 C 415.316406 237.003906 415.1875 235.726562 415.1875 234.402344 C 415.1875 233.074219 415.234375 232.1875 415.332031 231.734375 C 419.273438 231.636719 424.070312 231.28125 429.722656 230.664062 L 430.300781 231.246094 C 430.238281 231.699219 430.011719 233.996094 429.625 238.136719 C 431.402344 235.871094 433.46875 233.996094 435.824219 232.507812 C 438.214844 231.054688 440.542969 230.328125 442.800781 230.328125 C 445.09375 230.328125 447.097656 231.136719 448.808594 232.75 C 450.519531 234.402344 451.378906 236.535156 451.378906 239.152344 C 451.378906 243.519531 449.550781 245.699219 445.902344 245.699219 C 443.804688 245.699219 442.140625 245.023438 440.914062 243.664062 C 439.652344 242.304688 439.023438 240.496094 439.023438 238.230469 C 438.894531 238.167969 438.636719 238.136719 438.246094 238.136719 C 435.375 238.136719 432.417969 240.300781 429.382812 244.632812 C 429.316406 246.800781 429.285156 251.667969 429.285156 259.234375 C 429.285156 266.796875 429.625 273.460938 430.300781 279.214844 L 434.613281 279.554688 C 434.777344 281.269531 434.855469 282.449219 434.855469 283.09375 C 434.855469 283.773438 434.742188 284.757812 434.515625 286.054688 C 432.355469 285.988281 429.171875 285.957031 424.972656 285.957031 C 420.773438 285.957031 417.707031 285.988281 415.769531 286.054688 C 415.542969 284.890625 415.429688 283.789062 415.429688 282.753906 C 415.429688 281.71875 415.511719 280.652344 415.671875 279.554688 Z M 477.199219 260.105469 C 473.386719 260.105469 469.851562 259.910156 466.589844 259.523438 C 466.75 272.714844 471.128906 279.3125 479.71875 279.3125 C 484.078125 279.3125 488.890625 276.902344 494.15625 272.085938 C 496.417969 274.414062 497.851562 277.484375 498.46875 281.300781 C 492.105469 285.566406 485.355469 287.703125 478.214844 287.703125 C 471.078125 287.703125 465.765625 285.246094 462.277344 280.328125 C 458.789062 275.382812 457.046875 268.140625 457.046875 258.601562 C 457.046875 249.0625 459.015625 241.964844 462.957031 237.308594 C 466.863281 232.65625 472.417969 230.328125 479.621094 230.328125 C 484.984375 230.328125 489.40625 231.960938 492.894531 235.226562 C 496.382812 238.457031 498.144531 242.453125 498.175781 247.203125 C 498.207031 251.925781 497.804688 255.304688 496.964844 257.339844 C 491.152344 259.183594 484.5625 260.105469 477.199219 260.105469 Z M 478.796875 236.824219 C 471.59375 236.824219 467.574219 242.144531 466.734375 252.78125 C 470.222656 253.171875 474.050781 253.363281 478.214844 253.363281 C 482.414062 253.363281 485.675781 252.976562 488.003906 252.199219 C 488.292969 250.261719 488.4375 248.820312 488.4375 247.882812 C 488.4375 244.488281 487.566406 241.789062 485.824219 239.785156 C 484.078125 237.8125 481.738281 236.824219 478.796875 236.824219 Z M 478.796875 236.824219 "/>
</g>
</svg>
